<svg width="77" height="24" viewBox="0 0 77 24" fill="none" xmlns="http://www.w3.org/2000/svg">
<path d="M5.346 23.88C8.91 23.88 10.824 21.768 10.824 18.006C10.824 15.135 9.867 13.287 6.831 10.614C4.455 8.535 3.696 7.314 3.696 5.63099C3.696 4.047 4.356 3.42 5.511 3.42C6.666 3.42 7.326 4.047 7.326 5.697V6.885H10.758V5.92799C10.758 2.232 9.009 0.119995 5.478 0.119995C1.947 0.119995 0.0659999 2.232 0.0659999 5.862C0.0659999 8.502 1.056 10.383 4.092 13.056C6.468 15.135 7.194 16.356 7.194 18.27C7.194 19.986 6.468 20.58 5.313 20.58C4.158 20.58 3.432 19.986 3.432 18.336V16.752H0V18.072C0 21.768 1.782 23.88 5.346 23.88Z" fill="white"/>
<path d="M17.6243 23.88C21.1883 23.88 23.1023 21.768 23.1023 18.006C23.1023 15.135 22.1453 13.287 19.1093 10.614C16.7333 8.535 15.9743 7.314 15.9743 5.63099C15.9743 4.047 16.6343 3.42 17.7893 3.42C18.9443 3.42 19.6043 4.047 19.6043 5.697V6.885H23.0363V5.92799C23.0363 2.232 21.2873 0.119995 17.7563 0.119995C14.2253 0.119995 12.3443 2.232 12.3443 5.862C12.3443 8.502 13.3343 10.383 16.3703 13.056C18.7463 15.135 19.4723 16.356 19.4723 18.27C19.4723 19.986 18.7463 20.58 17.5913 20.58C16.4363 20.58 15.7103 19.986 15.7103 18.336V16.752H12.2783V18.072C12.2783 21.768 14.0603 23.88 17.6243 23.88Z" fill="white"/>
<path d="M25.1836 23.55H30.8926C34.5226 23.55 36.4036 21.636 36.4036 18.072V16.092C36.4036 13.65 35.6446 11.934 33.6976 11.274V11.208C35.3146 10.548 36.0406 9.063 36.0406 6.687V5.763C36.0406 2.199 34.4236 0.449995 30.6616 0.449995H25.1836V23.55ZM28.8136 9.85499V3.75H30.5626C31.8496 3.75 32.4106 4.476 32.4106 6.126V7.413C32.4106 9.26099 31.5856 9.85499 30.2326 9.85499H28.8136ZM28.8136 20.25V13.155H30.4306C32.0806 13.155 32.7736 13.815 32.7736 15.96V17.973C32.7736 19.689 32.1136 20.25 30.8926 20.25H28.8136Z" fill="white"/>
<path d="M43.7724 23.88C47.3364 23.88 49.2834 21.768 49.2834 18.072V5.92799C49.2834 2.232 47.3364 0.119995 43.7724 0.119995C40.2084 0.119995 38.2614 2.232 38.2614 5.92799V18.072C38.2614 21.768 40.2084 23.88 43.7724 23.88ZM43.7724 20.58C42.6174 20.58 41.8914 19.953 41.8914 18.303V5.697C41.8914 4.047 42.6174 3.42 43.7724 3.42C44.9274 3.42 45.6534 4.047 45.6534 5.697V18.303C45.6534 19.953 44.9274 20.58 43.7724 20.58Z" fill="white"/>
<path d="M56.9853 23.88C60.5493 23.88 62.4963 21.768 62.4963 18.072V5.92799C62.4963 2.232 60.5493 0.119995 56.9853 0.119995C53.4213 0.119995 51.4743 2.232 51.4743 5.92799V18.072C51.4743 21.768 53.4213 23.88 56.9853 23.88ZM56.9853 20.58C55.8303 20.58 55.1043 19.953 55.1043 18.303V5.697C55.1043 4.047 55.8303 3.42 56.9853 3.42C58.1403 3.42 58.8663 4.047 58.8663 5.697V18.303C58.8663 19.953 58.1403 20.58 56.9853 20.58Z" fill="white"/>
<path d="M64.9512 23.55H68.5812V16.191L70.0332 13.254L73.1022 23.55H76.8972L72.5082 8.93099L76.8312 0.449995H73.2012L68.5812 10.185V0.449995H64.9512V23.55Z" fill="white"/>
</svg>
